<?xml version="1.0" encoding="UTF-8" standalone="no"?>
<svg
   xmlns:dc="http://purl.org/dc/elements/1.1/"
   xmlns:cc="http://creativecommons.org/ns#"
   xmlns:rdf="http://www.w3.org/1999/02/22-rdf-syntax-ns#"
   xmlns:svg="http://www.w3.org/2000/svg"
   xmlns="http://www.w3.org/2000/svg"
   xmlns:sodipodi="http://sodipodi.sourceforge.net/DTD/sodipodi-0.dtd"
   xmlns:inkscape="http://www.inkscape.org/namespaces/inkscape"
   inkscape:version="1.0 (4035a4fb49, 2020-05-01)"
   sodipodi:docname="gravy1.svg"
   id="svg8"
   version="1.1"
   viewBox="0 0 117.77989 39.305622"
   height="39.305622mm"
   width="117.77989mm">
  <defs
     id="defs2" />
  <sodipodi:namedview
     fit-margin-bottom="0"
     fit-margin-right="0"
     fit-margin-left="0"
     fit-margin-top="0"
     inkscape:window-maximized="0"
     inkscape:window-y="30"
     inkscape:window-x="1295"
     inkscape:window-height="1378"
     inkscape:window-width="1233"
     inkscape:guide-bbox="true"
     showguides="true"
     showgrid="false"
     inkscape:document-rotation="0"
     inkscape:current-layer="layer5"
     inkscape:document-units="mm"
     inkscape:cy="259.37042"
     inkscape:cx="229.23568"
     inkscape:zoom="0.7"
     inkscape:pageshadow="2"
     inkscape:pageopacity="0.0"
     borderopacity="1.0"
     bordercolor="#666666"
     pagecolor="#ffffff"
     id="base">
    <sodipodi:guide
       id="guide1475"
       orientation="1,0"
       position="-359.99368,482.23993" />
    <sodipodi:guide
       id="guide1477"
       orientation="0,-1"
       position="-59.183211,205.48655" />
    <sodipodi:guide
       id="guide1505"
       orientation="1,0"
       position="30.119652,59.247334" />
    <sodipodi:guide
       id="guide1507"
       orientation="1,0"
       position="64.731054,42.275715" />
    <sodipodi:guide
       id="guide1509"
       orientation="1,0"
       position="100.6788,37.598495" />
    <sodipodi:guide
       id="guide1511"
       orientation="1,0"
       position="-0.21543706,49.759265" />
  </sodipodi:namedview>
  <metadata
     id="metadata5">
    <rdf:RDF>
      <cc:Work
         rdf:about="">
        <dc:format>image/svg+xml</dc:format>
        <dc:type
           rdf:resource="http://purl.org/dc/dcmitype/StillImage" />
        <dc:title></dc:title>
      </cc:Work>
    </rdf:RDF>
  </metadata>
  <g
     transform="translate(-13.846183,-12.458154)"
     style="display:inline;opacity:1"
     inkscape:label="textpathbottom"
     id="layer5"
     inkscape:groupmode="layer">
    <path
       inkscape:export-ydpi="183.30804"
       inkscape:export-xdpi="183.30804"
       inkscape:export-filename="/home/jp/CODE/gravy/public/images/gravy.png"
       transform="scale(0.26458333)"
       d="m 53.955078,89.730469 c -1.078786,5.084231 -1.623047,10.569571 -1.623047,16.462891 0,12.11332 2.261354,22.58296 6.785157,31.40625 4.561191,8.7859 10.918034,15.57191 19.068359,20.35742 8.150327,4.74813 17.609553,7.1211 28.376953,7.12109 9.6458,0 18.20623,-1.9438 25.68359,-5.83203 7.47737,-3.92561 13.34728,-9.49723 17.60938,-16.71289 4.20132,-7.14962 6.32681,-15.68122 6.38672,-25.59179 -14.65282,-2.23974 -30.58682,-8.77544 -47.62891,-14.89649 h -0.42578 v 18.28125 h 24.65625 c -0.10031,4.58784 -1.13308,8.59393 -3.12109,12.00195 -2.05628,3.58914 -5.04704,6.37397 -8.97266,8.35547 -3.88823,1.94412 -8.58031,2.91602 -14.07617,2.91602 -6.05666,0 -11.308784,-1.45883 -15.757814,-4.375 -4.449031,-2.95356 -7.888217,-7.23377 -10.31836,-12.8418 -2.430143,-5.60802 -3.646484,-12.41133 -3.646484,-20.41211 0,-4.82165 0.455392,-9.187791 1.351562,-13.113278 C 70.377635,91.091427 62.257795,89.925591 53.955078,89.730469 Z M 296.98438,103.46875 c -3.70134,0 -7.61627,0.13466 -11.69141,0.37695 0.0211,0.32896 0.041,0.65791 0.041,1.00196 v 0.33789 c 0,1.83195 -0.6909,3.21376 -2.07421,4.14843 -1.38332,0.93468 -3.60811,1.64484 -6.67383,2.13086 -3.06572,0.44865 -7.10345,0.93557 -12.11328,1.45899 -4.2621,0.41125 -8.33834,1.12141 -12.22657,2.13086 -3.85084,1.00944 -7.29002,2.50482 -10.31836,4.48633 -3.02833,1.9815 -5.42055,4.59891 -7.17773,7.85156 -1.75718,3.25265 -2.63672,7.27113 -2.63672,12.05664 0,5.68279 1.23364,10.43068 3.70117,14.24414 2.50492,3.77607 5.90755,6.63596 10.20703,8.58008 4.29949,1.90673 9.1975,2.86133 14.69336,2.86133 4.2621,0 8.01884,-0.56199 11.27149,-1.6836 3.25265,-1.15899 6.03944,-2.74673 8.35742,-4.76562 2.31798,-2.05628 4.16747,-4.4312 5.55078,-7.12305 h 0.67383 v 11.94531 H 309.2246 V 105.4082 c 0,-0.33868 -0.0167,-0.66573 -0.0254,-0.99804 -4.20955,-0.59601 -8.2948,-0.94141 -12.21484,-0.94141 z m 31.72851,5.10352 19.20703,54.93554 h 26.91797 l 12.70313,-36.33593 c -6.8151,-1.97919 -13.64353,-4.18114 -20.42969,-6.42774 l -5.28321,18.25781 h -0.89843 l -6.52539,-22.48437 c -8.7737,-2.9158 -17.39043,-5.7007 -25.69141,-7.94531 z m -130.79687,6.53711 c -8.65535,1.12186 -16.76367,2.00161 -23.89063,2.40039 v 45.99804 h 23.89063 z m 87.58593,8.46874 v 9.14258 c 0,3.02833 -0.76596,5.73811 -2.29883,8.13086 -1.53285,2.39276 -3.64604,4.30001 -6.33789,5.72071 -2.69185,1.38331 -5.79423,2.07421 -9.30859,2.07421 -3.66391,0 -6.69123,-0.84103 -9.08398,-2.52343 -2.35537,-1.7198 -3.53321,-4.20633 -3.53321,-7.45899 0,-2.24321 0.57929,-4.11195 1.73828,-5.60742 1.159,-1.53286 2.78525,-2.74725 4.87891,-3.64453 2.09366,-0.89728 4.54169,-1.55164 7.3457,-1.96289 1.30854,-0.18693 2.76737,-0.39286 4.375,-0.61719 1.60764,-0.26171 3.21464,-0.5427 4.82227,-0.8418 1.60763,-0.33648 3.04721,-0.69058 4.31836,-1.06445 1.30854,-0.41125 2.33625,-0.86163 3.08398,-1.34766 z m 195.44141,1.00782 c -7.9909,2.97034 -16.12394,5.60953 -24.31836,7.49023 l -2.43359,8.55078 h -0.89844 l -2.09375,-7.42773 c -6.10607,1.13143 -12.23452,1.80469 -18.34961,1.80469 -0.80677,0 -1.62128,-0.0324 -2.43359,-0.0527 l 10.82031,31.02539 -1.40235,3.64453 c -1.68241,3.88823 -3.9803,6.13033 -6.89648,6.72852 -2.87877,0.63557 -6.43154,0.30072 -10.65625,-1.00781 l -5.38281,17.88867 c 1.71978,0.67296 3.88683,1.233 6.5039,1.68164 2.65447,0.48603 5.49706,0.73047 8.52539,0.73047 5.90713,0 10.95332,-0.9546 15.14063,-2.86133 4.18734,-1.86934 7.64578,-4.5233 10.375,-7.96289 2.76664,-3.4022 4.95486,-7.40142 6.5625,-12 z"
       style="font-style:normal;font-variant:normal;font-weight:bold;font-stretch:normal;font-size:41.7835px;line-height:1.25;font-family:Inter;-inkscape-font-specification:'Inter Bold';fill:#3b4252;fill-opacity:1;stroke:none;stroke-width:3.94806"
       id="path1702" />
  </g>
  <g
     transform="translate(-13.846183,-12.458154)"
     style="display:inline;opacity:1"
     inkscape:label="textpathtop"
     id="layer2"
     inkscape:groupmode="layer">
    <path
       inkscape:export-ydpi="183.30804"
       inkscape:export-xdpi="183.30804"
       inkscape:export-filename="/home/jp/CODE/gravy/public/images/gravy.png"
       transform="scale(0.26458333)"
       d="m 106.05664,47.085938 c -7.589505,-10e-7 -14.63729,1.327963 -21.142578,3.982421 -6.50529,2.654456 -12.205855,6.522826 -17.103515,11.607422 -4.369766,4.536548 -7.87008,9.972679 -10.513672,16.294922 8.453514,0.462529 16.713934,1.88944 24.767578,3.880859 2.314015,-4.198195 5.275323,-7.512004 8.90625,-9.912109 4.449021,-2.916165 9.608797,-4.375 15.478517,-4.375 3.14048,0 6.00039,0.392613 8.58008,1.177735 2.61707,0.785121 4.93619,1.926404 6.95508,3.421874 2.05626,1.458082 3.79414,3.251769 5.21484,5.382813 1.42069,2.093657 2.52347,4.505145 3.30859,7.234375 h 24.67578 c -0.78512,-5.682782 -2.5615,-10.879116 -5.32812,-15.589844 -2.76662,-4.748112 -6.33669,-8.841671 -10.71094,-12.28125 -4.33686,-3.439579 -9.30996,-6.095507 -14.91797,-7.964844 -5.60801,-1.906721 -11.66463,-2.859374 -18.16992,-2.859374 z m 112.7207,29.048828 c -4.82288,0 -9.08387,1.383774 -12.78515,4.15039 -3.70129,2.729232 -6.33796,6.766981 -7.90821,12.113282 H 197.1875 V 77.369141 h -23.16211 v 29.249999 c 8.08825,-0.45256 17.41948,-1.51367 27.4082,-2.85937 1.44365,-1.88488 3.22264,-3.41392 5.34375,-4.576176 2.76662,-1.532856 5.90557,-2.298828 9.41993,-2.298828 1.64501,0 3.4599,0.130871 5.4414,0.392578 1.9815,0.261707 3.5327,0.561959 4.6543,0.898437 V 76.976562 c -1.04683,-0.261712 -2.26318,-0.467644 -3.64649,-0.617187 -1.3833,-0.149543 -2.67276,-0.224609 -3.86914,-0.224609 z m 53.88282,0.113281 c -6.87916,0 -12.93578,1.046968 -18.16993,3.140625 -5.19675,2.056269 -9.44043,5.008543 -12.73046,8.859375 -2.62265,3.039884 -4.54434,6.539761 -5.78907,10.482422 10.06836,-1.484843 20.15286,-2.907242 29.81446,-4.011719 1.9424,-0.681532 4.19123,-1.029297 6.76172,-1.029297 0.7231,0 1.40606,0.04035 2.07031,0.101563 7.97498,-0.751028 15.53297,-1.212891 22.36719,-1.212891 3.14912,0 6.40884,0.231714 9.74804,0.625 -0.15632,-0.327233 -0.30937,-0.656294 -0.48047,-0.972656 -1.98149,-3.701287 -4.69323,-6.730574 -8.13281,-9.085938 -3.40219,-2.355364 -7.30907,-4.093241 -11.7207,-5.214843 -4.37425,-1.121601 -8.95278,-1.681641 -13.73828,-1.681641 z m 45.14257,1.121094 6.72071,19.222656 c 8.48395,2.122165 17.34302,4.911333 26.38476,7.888673 l -7.86914,-27.111329 z m 61.85743,0 -9.67383,33.435549 c 6.99066,2.29425 14.01903,4.51204 21.01758,6.46289 l 13.94921,-39.898439 z m 30.67578,0 16.22461,46.523439 c 2.11222,0.13095 4.21212,0.22265 6.28906,0.22265 5.13805,0 10.28623,-0.48168 15.42187,-1.30078 l -12.8125,-45.445309 z m 61.85547,0 -12.24024,43.009769 c 8.58454,-2.18346 17.08025,-5.14583 25.41016,-8.375 L 497.48438,77.480469 Z M 139.48633,102.04492 c 5.75518,1.76668 11.34571,3.18233 16.76172,4.00977 v -4.00977 z"
       style="font-style:normal;font-variant:normal;font-weight:bold;font-stretch:normal;font-size:41.7834px;line-height:1.25;font-family:Inter;-inkscape-font-specification:'Inter Bold';fill:#d08770;fill-opacity:1;stroke:none;stroke-width:3.94806"
       id="path1611" />
  </g>
</svg>
